<?xml version="1.0" encoding="UTF-8" standalone="no"?>
<svg
   xmlns:dc="http://purl.org/dc/elements/1.1/"
   xmlns:cc="http://creativecommons.org/ns#"
   xmlns:rdf="http://www.w3.org/1999/02/22-rdf-syntax-ns#"
   xmlns:svg="http://www.w3.org/2000/svg"
   xmlns="http://www.w3.org/2000/svg"
   version="1.1"
   id="svg2"
   xml:space="preserve"
   width="1115.2333"
   height="526.21997"
   viewBox="0 0 1115.2333 526.21997"><metadata
     id="metadata8"><rdf:RDF><cc:Work
         rdf:about=""><dc:format>image/svg+xml</dc:format><dc:type
           rdf:resource="http://purl.org/dc/dcmitype/StillImage" /></cc:Work></rdf:RDF></metadata><defs
     id="defs6"><clipPath
       clipPathUnits="userSpaceOnUse"
       id="clipPath18"><path
         d="M 0,394.665 H 836.425 V 0 H 0 Z"
         id="path16" /></clipPath></defs><g
     id="g10"
     transform="matrix(1.3333333,0,0,-1.3333333,0,526.22)"><g
       id="g12"><g
         id="g14"
         clip-path="url(#clipPath18)"><g
           id="g20"
           transform="translate(242.1299,131.4686)"><path
             d="m 0,0 h -89.505 c -11.612,0 -21.025,9.413 -21.025,21.025 v 89.505 c 0,11.612 9.413,21.025 21.025,21.025 H 0 c 11.612,0 21.025,-9.413 21.025,-21.025 V 21.025 C 21.025,9.413 11.612,0 0,0"
             style="fill:#ef3340;fill-opacity:1;fill-rule:nonzero;stroke:none"
             id="path22" /></g><g
           id="g24"
           transform="translate(153.5255,197.2461)"><path
             d="m 0,0 v -65.777 h 21.926 v 43.851 h 43.852 v -43.851 h 21.925 l 0,65.777 z"
             style="fill:#ffffff;fill-opacity:1;fill-rule:nonzero;stroke:none"
             id="path26" /></g><g
           id="g28"
           transform="translate(285.8345,263.0158)"><path
             d="m 0,0 v -8.632 h 8.372 v -30.576 h 10.191 v 30.576 h 8.372 V 0 Z"
             style="fill:#1d1d1b;fill-opacity:1;fill-rule:nonzero;stroke:none"
             id="path30" /></g><g
           id="g32"
           transform="translate(343.5596,263.0158)"><path
             d="M 0,0 V -15.132 H -14.716 V 0 h -10.192 v -39.208 h 10.192 v 16.172 H 0 v -16.172 h 10.193 l 0,39.208 z"
             style="fill:#1d1d1b;fill-opacity:1;fill-rule:nonzero;stroke:none"
             id="path34" /></g><g
           id="g36"
           transform="translate(359.6345,263.0158)"><path
             d="m 0,0 v -39.208 h 22.308 v 8.631 H 10.192 v 6.76 h 11.44 v 8.633 h -11.44 v 6.552 H 22.308 V 0 Z"
             style="fill:#1d1d1b;fill-opacity:1;fill-rule:nonzero;stroke:none"
             id="path38" /></g><g
           id="g40"
           transform="translate(285.7318,219.1462)"><path
             d="m 0,0 h 33.965 c 8.064,0 14.191,-1.939 18.379,-5.815 4.187,-3.879 6.28,-9.462 6.28,-16.751 0,-4.419 -0.795,-8.084 -2.384,-10.991 -1.59,-2.909 -4.013,-5.372 -7.27,-7.386 3.257,-0.623 6.029,-1.571 8.318,-2.851 2.285,-1.28 4.147,-2.851 5.582,-4.71 1.434,-1.861 2.462,-3.956 3.083,-6.283 0.62,-2.325 0.93,-4.807 0.93,-7.445 0,-4.108 -0.717,-7.754 -2.151,-10.932 -1.436,-3.181 -3.452,-5.857 -6.049,-8.026 -2.599,-2.173 -5.757,-3.802 -9.48,-4.885 -3.722,-1.089 -7.91,-1.629 -12.563,-1.629 l -36.64,0 z m 22.799,-34.429 h 4.187 c 7.135,0 10.702,2.828 10.702,8.491 0,5.658 -3.567,8.489 -10.702,8.489 h -4.187 z m 0,-35.593 h 5.002 c 5.738,0 9.846,0.734 12.329,2.208 2.481,1.474 3.722,3.84 3.722,7.095 0,3.258 -1.241,5.621 -3.722,7.095 -2.483,1.474 -6.591,2.211 -12.329,2.211 h -5.002 z"
             style="fill:#1d1d1b;fill-opacity:1;fill-rule:nonzero;stroke:none"
             id="path42" /></g><g
           id="g44"
           transform="translate(432.0751,131.4422)"><path
             d="M 0,0 H -28.381 L -50.133,33.731 V 0 h -22.798 v 87.704 h 35.478 c 4.884,0 9.148,-0.718 12.794,-2.153 3.645,-1.435 6.648,-3.394 9.015,-5.873 2.365,-2.483 4.148,-5.35 5.35,-8.608 1.201,-3.256 1.804,-6.747 1.804,-10.467 0,-6.672 -1.611,-12.08 -4.828,-16.227 -3.218,-4.151 -7.968,-6.963 -14.249,-8.434 z m -50.133,48.504 h 4.304 c 4.497,0 7.948,0.931 10.353,2.792 2.403,1.862 3.605,4.536 3.605,8.027 0,3.488 -1.202,6.164 -3.605,8.026 -2.405,1.859 -5.856,2.79 -10.353,2.79 h -4.304 z"
             style="fill:#1d1d1b;fill-opacity:1;fill-rule:nonzero;stroke:none"
             id="path46" /></g><g
           id="g48"
           transform="translate(471.3227,219.1462)"><path
             d="m 0,0 h 33.733 c 5.97,0 11.573,-1.202 16.808,-3.607 5.234,-2.402 9.808,-5.602 13.725,-9.595 3.915,-3.995 6.998,-8.646 9.247,-13.957 2.248,-5.314 3.373,-10.878 3.373,-16.693 0,-5.74 -1.104,-11.265 -3.315,-16.576 -2.209,-5.311 -5.273,-9.985 -9.188,-14.016 -3.918,-4.031 -8.492,-7.251 -13.725,-9.653 -5.235,-2.404 -10.876,-3.607 -16.925,-3.607 l -33.733,0 z m 22.799,-68.396 h 5.235 c 3.954,0 7.481,0.621 10.584,1.862 3.101,1.238 5.717,2.945 7.852,5.117 2.132,2.172 3.76,4.751 4.885,7.735 1.123,2.984 1.687,6.262 1.687,9.83 0,3.488 -0.582,6.746 -1.746,9.772 -1.162,3.022 -2.81,5.621 -4.942,7.793 -2.135,2.17 -4.752,3.876 -7.852,5.117 -3.103,1.239 -6.593,1.862 -10.468,1.862 h -5.235 z"
             style="fill:#1d1d1b;fill-opacity:1;fill-rule:nonzero;stroke:none"
             id="path50" /></g><g
           id="g52"
           transform="translate(601.255,180.5278)"><path
             d="m 0,0 h 45.247 c 0,-4.652 -0.194,-8.88 -0.582,-12.678 -0.388,-3.801 -1.162,-7.328 -2.326,-10.586 -1.628,-4.574 -3.838,-8.628 -6.63,-12.155 -2.791,-3.529 -6.068,-6.474 -9.828,-8.84 -3.763,-2.366 -7.892,-4.17 -12.389,-5.408 -4.497,-1.239 -9.228,-1.862 -14.19,-1.862 -6.825,0 -13.048,1.125 -18.669,3.374 -5.623,2.247 -10.451,5.409 -14.482,9.481 -4.032,4.07 -7.173,8.955 -9.421,14.656 -2.251,5.699 -3.373,11.997 -3.373,18.901 0,6.824 1.104,13.085 3.315,18.784 2.209,5.702 5.35,10.567 9.421,14.598 4.071,4.031 8.975,7.173 14.714,9.422 5.738,2.25 12.135,3.375 19.193,3.375 9.148,0 17.174,-1.978 24.077,-5.935 6.902,-3.953 12.368,-10.079 16.402,-18.376 L 18.844,7.793 C 16.825,12.6 14.208,16.053 10.992,18.147 7.773,20.239 4.109,21.286 0,21.286 c -3.413,0 -6.514,-0.64 -9.306,-1.917 -2.792,-1.28 -5.176,-3.103 -7.154,-5.469 -1.976,-2.366 -3.529,-5.214 -4.652,-8.547 -1.126,-3.336 -1.687,-7.06 -1.687,-11.168 0,-3.721 0.484,-7.173 1.455,-10.354 0.968,-3.18 2.421,-5.932 4.36,-8.256 1.939,-2.327 4.343,-4.131 7.212,-5.411 2.869,-1.277 6.204,-1.917 10.005,-1.917 2.248,0 4.419,0.249 6.513,0.756 2.093,0.502 3.973,1.316 5.641,2.441 1.666,1.125 3.043,2.577 4.129,4.364 1.085,1.781 1.822,3.953 2.211,6.513 l -18.727,0 z"
             style="fill:#1d1d1b;fill-opacity:1;fill-rule:nonzero;stroke:none"
             id="path54" /></g><path
           d="m 459.127,131.443 h -22.799 v 87.704 h 22.799 z"
           style="fill:#1d1d1b;fill-opacity:1;fill-rule:nonzero;stroke:none"
           id="path56" /><g
           id="g58"
           transform="translate(655.1909,219.1462)"><path
             d="m 0,0 v -87.704 h 49.901 v 19.308 H 22.799 v 15.121 h 25.589 v 19.311 H 22.799 v 14.656 h 27.102 l 0,19.308 z"
             style="fill:#1d1d1b;fill-opacity:1;fill-rule:nonzero;stroke:none"
             id="path60" /></g></g></g></g></svg>
